<?xml version="1.0" standalone="no"?>
<!DOCTYPE svg PUBLIC "-//W3C//DTD SVG 20010904//EN"
 "http://www.w3.org/TR/2001/REC-SVG-20010904/DTD/svg10.dtd">
<svg version="1.0" xmlns="http://www.w3.org/2000/svg"
 width="740.000000pt" height="250.000000pt" viewBox="0 0 740.000000 250.000000"
 preserveAspectRatio="xMidYMid meet">

<g transform="translate(0.000000,250.000000) scale(0.100000,-0.100000)"
fill="#000000" stroke="none">
<path d="M0 1250 l0 -1250 3700 0 3700 0 0 1250 0 1250 -3700 0 -3700 0 0
-1250z m6055 744 c95 -33 187 -101 242 -181 30 -45 40 -52 57 -46 12 5 80 7
151 5 319 -6 463 -54 611 -201 77 -76 135 -161 163 -237 18 -47 21 -78 21
-212 0 -149 -1 -161 -25 -209 -52 -104 -160 -196 -311 -263 -135 -61 -192 -72
-403 -77 -216 -6 -250 0 -307 49 -38 34 -74 95 -74 128 0 11 -2 20 -5 20 -2 0
-33 -16 -67 -35 -84 -46 -177 -69 -246 -61 -64 8 -155 43 -214 84 l-44 30 -33
-25 c-31 -25 -157 -82 -236 -108 -22 -7 -65 -25 -95 -39 -41 -19 -71 -26 -118
-26 -79 0 -125 19 -182 75 -44 43 -46 44 -90 35 -25 -4 -79 -14 -120 -20 -41
-7 -109 -23 -150 -36 -127 -40 -239 -26 -307 38 l-22 21 -54 -36 c-91 -60
-130 -72 -243 -72 -100 0 -103 1 -184 42 l-83 42 -28 -20 c-126 -90 -299 -89
-402 1 -39 35 -49 39 -67 30 -34 -18 -241 -52 -321 -53 -64 -1 -86 4 -132 27
-31 15 -70 43 -86 63 l-30 36 -42 -37 c-68 -62 -84 -66 -326 -68 -234 -3 -250
0 -309 54 -21 19 -24 19 -75 4 -47 -14 -76 -15 -254 -4 -110 7 -271 12 -357
10 -135 -2 -163 -5 -205 -24 -28 -12 -77 -23 -119 -26 -62 -4 -79 -1 -130 22
-33 15 -73 40 -90 57 -29 28 -32 29 -65 15 -59 -24 -289 -59 -347 -52 -96 11
-166 55 -202 127 -46 89 -11 231 69 286 32 22 40 34 41 59 0 17 -6 37 -14 43
-8 6 -24 35 -36 63 -26 60 -24 133 5 188 l17 32 -56 50 c-60 53 -76 89 -76
171 0 90 54 171 140 209 75 32 289 61 410 54 169 -9 264 -36 341 -97 l38 -30
43 22 c34 17 70 24 173 30 155 10 154 10 420 55 231 40 255 39 329 -11 36 -24
42 -25 199 -25 172 1 328 12 415 32 71 15 147 -2 208 -48 l46 -35 102 17 c174
29 389 8 499 -48 49 -24 120 -90 148 -134 l21 -34 44 60 c63 82 126 136 193
161 47 17 73 20 161 17 97 -3 110 -6 180 -40 41 -21 82 -43 91 -49 12 -9 23
-6 55 14 51 33 92 43 244 58 112 11 131 10 176 -5 54 -18 113 -72 154 -140 23
-39 24 -39 30 -15 19 69 65 121 140 160 40 20 63 23 197 27 190 5 230 0 291
-43 l49 -33 47 49 c82 85 158 111 296 104 41 -2 98 -12 125 -21z"/>
</g>
</svg>
